<svg version="1.1" xmlns="http://www.w3.org/2000/svg" xmlns:xlink="http://www.w3.org/1999/xlink" width="48.33334" height="48.33334" viewBox="0,0,48.33334,48.33334"><defs><radialGradient cx="57.66667" cy="328.72544" r="24.16667" gradientUnits="userSpaceOnUse" id="color-1"><stop offset="0" stop-color="#2fff00"/><stop offset="1" stop-color="#2fff00" stop-opacity="0"/></radialGradient><linearGradient x1="57.5" y1="317" x2="57.5" y2="341" gradientUnits="userSpaceOnUse" id="color-2"><stop offset="0" stop-color="#2fff00"/><stop offset="1" stop-color="#1f9000"/></linearGradient></defs><g transform="translate(-33.5,-304.55877)"><g data-paper-data="{&quot;isPaintingLayer&quot;:true}" fill-rule="nonzero" stroke-linejoin="miter" stroke-miterlimit="10" stroke-dasharray="" stroke-dashoffset="0" style="mix-blend-mode: normal"><path d="M33.5,328.72544c0,-13.34688 10.81979,-24.16667 24.16667,-24.16667c13.34688,0 24.16667,10.81979 24.16667,24.16667c0,13.34688 -10.81979,24.16667 -24.16667,24.16667c-13.34688,0 -24.16667,-10.81979 -24.16667,-24.16667z" fill="url(#color-1)" stroke="#000000" stroke-width="0" stroke-linecap="butt"/><path d="M45.5,329c0,-6.62742 5.37258,-12 12,-12c6.62742,0 12,5.37258 12,12c0,6.62742 -5.37258,12 -12,12c-6.62742,0 -12,-5.37258 -12,-12z" fill="url(#color-2)" stroke="#000000" stroke-width="0" stroke-linecap="butt"/><path d="M56.16667,324.55877l5,4.33333l-5,4.33333z" fill="#ffffff" stroke="#ffffff" stroke-width="2" stroke-linecap="round"/></g></g></svg>